<?xml version="1.0" encoding="UTF-8"?>
<svg id="Layer_1" data-name="Layer 1" xmlns="http://www.w3.org/2000/svg" viewBox="0 0 789.53 453.18">
  <defs>
    <style>
      .cls-1 {
        stroke-width: 0px;
      }
    </style>
  </defs>
  <g>
    <path class="cls-1" d="M96.96,390.08H0V0h183.34c7.81,0,13.19,1.49,16.16,4.46,2.98,2.98,4.46,8.36,4.46,16.16v157.15c0,7.8-1.4,13.19-4.18,16.16-2.79,2.98-7.72,4.46-14.78,4.46h-3.89v7.8h3.89c7.05,0,11.98,1.49,14.78,4.46,2.78,2.98,4.18,8.36,4.18,16.16v163.28h-97.52v-147.12h-9.48v147.12ZM96.96,84.14v74.67h9.48v-74.67h-9.48Z"/>
    <path class="cls-1" d="M396.77,390.08h-165.51c-7.44,0-12.45-1.3-15.05-3.9-2.6-2.59-3.89-7.8-3.89-15.6v-180.55c0-7.43,1.29-12.54,3.89-15.33,2.6-2.78,7.61-4.18,15.05-4.18h76.34v-63.53h-8.36v55.17h-86.93V48.48c0-7.8,1.29-13,3.89-15.61,2.6-2.59,7.61-3.9,15.05-3.9h146c7.81,0,13,1.3,15.6,3.9,2.6,2.6,3.9,7.81,3.9,15.61v341.6ZM307.6,312.07v-63.53h-8.36v63.53h8.36Z"/>
    <path class="cls-1" d="M592.92,0v390.08h-168.3c-7.43,0-12.44-1.3-15.04-3.9-2.61-2.59-3.9-7.8-3.9-15.6V48.48c0-7.8,1.29-13,3.9-15.61,2.6-2.59,7.61-3.9,15.04-3.9h78.58V0h89.72ZM503.2,106.99h-8.36v205.08h8.36V106.99Z"/>
    <path class="cls-1" d="M788.52,48.48v322.1c0,7.8-1.4,13.01-4.18,15.6-2.79,2.6-7.9,3.9-15.33,3.9h-148.79c-7.43,0-12.44-1.3-15.04-3.9-2.61-2.59-3.9-7.8-3.9-15.6V48.48c0-7.8,1.29-13,3.9-15.61,2.6-2.59,7.61-3.9,15.04-3.9h148.79c7.43,0,12.53,1.3,15.33,3.9,2.78,2.6,4.18,7.81,4.18,15.61ZM690.45,106.99v205.08h8.36V106.99h-8.36Z"/>
  </g>
  <g>
    <path class="cls-1" d="M405.69,451.97v-42.85h13.8c3.51,0,6.48.53,8.93,1.6,2.44,1.07,4.42,2.55,5.93,4.45,1.51,1.9,2.61,4.17,3.3,6.81.69,2.64,1.03,5.54,1.03,8.69s-.34,5.96-1.03,8.56-1.79,4.84-3.3,6.72c-1.51,1.88-3.49,3.35-5.93,4.42-2.44,1.07-5.42,1.6-8.93,1.6h-13.8ZM425.42,430.66c0-3.19-.51-5.66-1.51-7.41-1.01-1.75-2.4-2.63-4.18-2.63h-.79v19.85h.79c1.77,0,3.17-.88,4.18-2.63,1.01-1.75,1.51-4.15,1.51-7.17Z"/>
    <path class="cls-1" d="M443.28,409.12h22.88v11.56h-10.35v4.3h9.38v10.71h-9.38v4.48h11.14v11.8h-23.66v-42.85Z"/>
    <path class="cls-1" d="M481.41,453.06c-1.45,0-2.84-.13-4.15-.39-1.31-.26-2.52-.62-3.63-1.06-1.11-.44-2.13-.95-3.06-1.51-.93-.56-1.72-1.13-2.36-1.69l6.29-9.99c.93.77,1.95,1.39,3.06,1.88,1.11.48,2.21.73,3.3.73.69,0,1.26-.17,1.73-.51.46-.34.7-.84.7-1.48,0-.77-.33-1.41-1-1.94-.67-.52-1.71-1.13-3.12-1.82-1.21-.56-2.36-1.2-3.45-1.91s-2.06-1.56-2.91-2.57c-.85-1.01-1.52-2.19-2.03-3.54-.51-1.35-.76-2.94-.76-4.75,0-2.62.46-4.85,1.39-6.69.93-1.84,2.11-3.33,3.54-4.48,1.43-1.15,3.03-1.99,4.78-2.51,1.76-.52,3.48-.79,5.18-.79,2.58,0,4.89.4,6.93,1.21,2.04.81,3.74,1.86,5.11,3.15l-6.48,9.87c-.69-.69-1.49-1.26-2.42-1.73-.93-.46-1.82-.7-2.66-.7-.65,0-1.23.16-1.76.48-.52.32-.79.89-.79,1.7,0,.65.27,1.17.82,1.57s1.6.99,3.18,1.75c.89.44,1.88,1,2.97,1.66,1.09.67,2.12,1.51,3.09,2.54s1.79,2.27,2.45,3.72c.67,1.45,1,3.17,1,5.14,0,2.58-.42,4.8-1.27,6.66-.85,1.86-1.98,3.37-3.39,4.54-1.41,1.17-3.02,2.04-4.81,2.6-1.8.57-3.62.85-5.48.85Z"/>
    <path class="cls-1" d="M500.47,409.12h13.32v42.85h-13.32v-42.85Z"/>
    <path class="cls-1" d="M536.79,453c-2.86,0-5.44-.54-7.72-1.63-2.28-1.09-4.21-2.62-5.78-4.6-1.57-1.98-2.78-4.34-3.63-7.08-.85-2.74-1.27-5.79-1.27-9.14s.43-6.54,1.3-9.32c.87-2.78,2.09-5.16,3.66-7.14,1.57-1.98,3.45-3.5,5.63-4.57,2.18-1.07,4.56-1.6,7.14-1.6,1.69,0,3.23.15,4.6.45,1.37.3,2.6.7,3.69,1.18s2.03,1.04,2.81,1.66c.79.63,1.46,1.26,2.03,1.91l-6.84,9.87c-.61-.73-1.31-1.3-2.12-1.72-.81-.42-1.82-.64-3.03-.64-1.09,0-2.02.27-2.78.82-.77.54-1.41,1.27-1.94,2.18-.52.91-.91,1.96-1.15,3.15-.24,1.19-.36,2.45-.36,3.78,0,1.25.1,2.48.3,3.69.2,1.21.52,2.29.97,3.24s1.03,1.72,1.76,2.3c.73.59,1.61.88,2.66.88.73,0,1.35-.14,1.88-.42v-3.69h-3.75v-11.44h14.77v24.45c-1.45,1.05-3.25,1.89-5.39,2.51-2.14.62-4.62.94-7.44.94Z"/>
    <path class="cls-1" d="M566.38,431.75h-.18l.48,20.22h-11.68v-42.85h13.98l6.72,20.88h.24l-.36-20.88h11.26v42.85h-13.62l-6.84-20.22Z"/>
    <path class="cls-1" d="M615.1,453.06c-1.45,0-2.84-.13-4.15-.39-1.31-.26-2.52-.62-3.63-1.06-1.11-.44-2.13-.95-3.06-1.51-.93-.56-1.72-1.13-2.36-1.69l6.29-9.99c.93.77,1.95,1.39,3.06,1.88,1.11.48,2.21.73,3.3.73.69,0,1.26-.17,1.73-.51.46-.34.7-.84.7-1.48,0-.77-.33-1.41-1-1.94-.67-.52-1.71-1.13-3.12-1.82-1.21-.56-2.36-1.2-3.45-1.91s-2.06-1.56-2.91-2.57c-.85-1.01-1.52-2.19-2.03-3.54-.51-1.35-.76-2.94-.76-4.75,0-2.62.46-4.85,1.39-6.69.93-1.84,2.11-3.33,3.54-4.48,1.43-1.15,3.03-1.99,4.78-2.51,1.76-.52,3.48-.79,5.18-.79,2.58,0,4.89.4,6.93,1.21,2.04.81,3.74,1.86,5.11,3.15l-6.48,9.87c-.69-.69-1.49-1.26-2.42-1.73-.93-.46-1.82-.7-2.66-.7-.65,0-1.23.16-1.76.48-.52.32-.79.89-.79,1.7,0,.65.27,1.17.82,1.57s1.6.99,3.18,1.75c.89.44,1.88,1,2.97,1.66,1.09.67,2.12,1.51,3.09,2.54s1.79,2.27,2.45,3.72c.67,1.45,1,3.17,1,5.14,0,2.58-.42,4.8-1.27,6.66-.85,1.86-1.98,3.37-3.39,4.54-1.41,1.17-3.02,2.04-4.81,2.6-1.8.57-3.62.85-5.48.85Z"/>
    <path class="cls-1" d="M651.18,451.97h-12.95v-31.71h-7.57v-11.14h28.08v11.14h-7.57v31.71Z"/>
    <path class="cls-1" d="M676.72,453.18c-2.82,0-5.23-.45-7.2-1.36-1.98-.91-3.6-2.17-4.87-3.78-1.27-1.61-2.2-3.51-2.78-5.69-.59-2.18-.88-4.54-.88-7.08v-26.15h13.26v25c0,2.06.17,3.62.51,4.69.34,1.07,1.08,1.6,2.21,1.6s1.88-.53,2.24-1.6c.36-1.07.54-2.63.54-4.69v-25h13.07v26.15c0,2.54-.31,4.9-.94,7.08-.63,2.18-1.59,4.08-2.9,5.69-1.31,1.62-2.98,2.87-4.99,3.78s-4.44,1.36-7.26,1.36Z"/>
    <path class="cls-1" d="M698.2,451.97v-42.85h13.8c3.51,0,6.48.53,8.93,1.6,2.44,1.07,4.42,2.55,5.93,4.45,1.51,1.9,2.61,4.17,3.3,6.81.69,2.64,1.03,5.54,1.03,8.69s-.34,5.96-1.03,8.56-1.79,4.84-3.3,6.72c-1.51,1.88-3.49,3.35-5.93,4.42-2.44,1.07-5.42,1.6-8.93,1.6h-13.8ZM717.93,430.66c0-3.19-.51-5.66-1.51-7.41-1.01-1.75-2.4-2.63-4.18-2.63h-.79v19.85h.79c1.77,0,3.17-.88,4.18-2.63,1.01-1.75,1.51-4.15,1.51-7.17Z"/>
    <path class="cls-1" d="M735.79,409.12h13.32v42.85h-13.32v-42.85Z"/>
    <path class="cls-1" d="M753.7,430.42c0-3.43.41-6.54,1.24-9.32.83-2.78,2.02-5.15,3.57-7.11,1.55-1.96,3.44-3.46,5.66-4.51,2.22-1.05,4.7-1.57,7.44-1.57s5.22.52,7.44,1.57c2.22,1.05,4.11,2.55,5.66,4.51,1.55,1.96,2.74,4.33,3.57,7.11.83,2.78,1.24,5.89,1.24,9.32s-.41,6.55-1.24,9.35c-.83,2.8-2.02,5.2-3.57,7.17-1.55,1.98-3.44,3.51-5.66,4.6s-4.7,1.63-7.44,1.63-5.23-.54-7.44-1.63c-2.22-1.09-4.11-2.62-5.66-4.6-1.55-1.98-2.75-4.37-3.57-7.17-.83-2.8-1.24-5.92-1.24-9.35ZM767.02,430.42c0,2.78.37,5.09,1.12,6.93.75,1.84,1.91,2.75,3.48,2.75s2.73-.92,3.48-2.75c.75-1.84,1.12-4.15,1.12-6.93s-.37-5.07-1.12-6.87c-.75-1.79-1.91-2.69-3.48-2.69s-2.73.9-3.48,2.69c-.75,1.8-1.12,4.09-1.12,6.87Z"/>
  </g>
</svg>