<?xml version="1.0" encoding="UTF-8"?>
<svg id="Layer_1" data-name="Layer 1" xmlns="http://www.w3.org/2000/svg" viewBox="0 0 99.88 150.83">
  <defs>
    <style>
      .cls-1 {
        stroke-width: 0px;
        fill: white;
      }
    </style>
  </defs>
  <path class="cls-1" d="M99.88,150.83H0V0h79.44c6.33,0,11.35,1.63,14.93,4.84,3.66,3.3,5.51,7.92,5.51,13.75v51.2c0,3.04-.46,5.67-1.4,7.99.94,2.32,1.4,4.94,1.4,7.99v65.07ZM4.28,146.56h91.33v-60.79c0-2.8-.45-5.11-1.39-7.06l-.44-.92.44-.92c.93-1.96,1.39-4.27,1.39-7.07V18.59c0-4.56-1.38-8.12-4.09-10.57-2.77-2.48-6.83-3.74-12.07-3.74H4.28v142.28Z"/>
  <path class="cls-1" d="M48.12,138.97H12.96V11.87h66.47c2.83,0,4.78.48,5.86,1.45,1.08.97,1.62,2.72,1.62,5.27v51.2c0,2.54-.51,4.3-1.52,5.27-1.01.97-2.8,1.45-5.35,1.45h-1.41v2.54h1.41c2.56,0,4.34.49,5.35,1.45,1.01.97,1.52,2.72,1.52,5.27v53.2h-35.36v-47.93h-3.43v47.93ZM48.12,39.28v24.33h3.43v-24.33h-3.43Z"/>
</svg>